<svg xmlns="http://www.w3.org/2000/svg" viewBox="0 0 377.41 120.36"><defs><style>.cls-1{fill:#fff;}</style></defs><g id="Layer_2" data-name="Layer 2"><g id="Layer_1-2" data-name="Layer 1"><path class="cls-1" d="M109.09,25.09a60.56,60.56,0,0,0-4.25-5.25c-.68-.75-1.39-1.49-2.11-2.21s-1.42-1.39-2.15-2q-2.06-1.87-4.25-3.52T92.08,9.12Q90,7.82,87.82,6.69t-4.25-2c-1.4-.59-2.81-1.13-4.25-1.61s-2.82-.88-4.25-1.24-2.83-.67-4.26-.92a61.22,61.22,0,0,0-21.26,0c-1.43.25-2.85.56-4.26.92S42.44,2.62,41,3.09s-2.85,1-4.25,1.61-2.86,1.27-4.25,2-2.87,1.56-4.26,2.43S25.41,11,24,12.06s-2.88,2.27-4.25,3.52c-.73.66-1.45,1.34-2.15,2s-1.43,1.46-2.11,2.21a60.56,60.56,0,0,0-4.25,5.25A60.12,60.12,0,0,0,14,98.78c1.14,1.36,2.36,2.69,3.61,3.94a58.55,58.55,0,0,0,6.11,5.34A60.26,60.26,0,0,0,72.9,119a58,58,0,0,0,8.7-2.58,60.18,60.18,0,0,0,15-8.3,62.18,62.18,0,0,0,6.13-5.34c.65-.65,1.28-1.31,1.9-2l1.77-2a60.22,60.22,0,0,0,2.74-73.69Zm-4.25,5.12v39l-4.26-.2V24.69A53,53,0,0,1,104.84,30.21Zm-8.51-9.84V68.83l-3.51-.2a2.09,2.09,0,0,1-.74-.21c-.58-.27-1.14-.74-1.21-1.13C90,62,89.22,56.74,88.43,51.44c2.1-.18,3.11-.33,3.65-1.15s.56-1.85.69-3.88l-.69-.15V16.88C93.55,18,95,19.14,96.33,20.37ZM87.82,14V45.6c-1.42-.24-2.84-.52-4.25-.83v-33Q85.76,12.79,87.82,14ZM79.32,9.9V43.71c-1.43-.4-2.85-.84-4.25-1.31V8.48C76.51,8.89,77.93,9.37,79.32,9.9Zm-8.51,31Q68.66,40,66.56,39V6.76c1.43.17,2.85.39,4.25.68ZM62.31,6.42V37l-1.19-.62a3,3,0,0,0-2.42.18l-.65.33V6.42c.71,0,1.42,0,2.13,0S61.6,6.39,62.31,6.42Zm-8.51.34V38.94c-1.41.65-2.82,1.26-4.25,1.83V7.44C51,7.15,52.36,6.93,53.8,6.76ZM45.29,8.48V42.34c-1.4.48-2.82.91-4.25,1.31V9.9C42.43,9.37,43.85,8.89,45.29,8.48Zm-8.5,3.26v33c-1.41.31-2.83.58-4.25.84V14Q34.6,12.8,36.79,11.74Zm-8.51,5.14V46.31l-1.16.22c.41,1.59.78,3.07,1.16,4.58a2.86,2.86,0,0,1,.07.28h3.37C30.93,56.7,30.19,61.87,29.35,67a2.12,2.12,0,0,1-1.07,1.41l-.08,0L24,68.93V20.37A54.72,54.72,0,0,1,28.28,16.88Zm-8.5,7.81V69.36c-1.27.12-2.54.21-3.81.29l-.45,0V30.21A53,53,0,0,1,19.78,24.69ZM6.38,60.18a53.51,53.51,0,0,1,4.89-22.41v32l-4,0A53.81,53.81,0,0,1,6.38,60.18Zm15.75,38C21,97.09,19.92,95.9,18.9,94.68q-1.74-2.09-3.26-4.31A100.18,100.18,0,0,0,57.29,80.09c0,3.23.07,6.1,0,9,0,.51-.73,1.17-1.27,1.45a90.76,90.76,0,0,1-31.81,9.64C23.46,99.51,22.79,98.87,22.13,98.21ZM57.25,106a2.08,2.08,0,0,1-1.08,1.38A89.26,89.26,0,0,1,45.73,112c-1.35-.37-2.69-.8-4-1.28a53.4,53.4,0,0,1-11.54-5.88A100.79,100.79,0,0,0,57.3,96C57.3,99.56,57.35,102.8,57.25,106Zm-.06-33c-.08.76-1.27,1.61-2.12,2a90.49,90.49,0,0,1-29.36,9c-3.8.46-7.61.67-11.42,1-1.3.12-2.11-.23-2.27-1.83-.27-2.58-.7-5.15-1.1-8A103.82,103.82,0,0,0,45.29,69.9c1.43-.49,2.85-1,4.26-1.56s2.84-1.16,4.25-1.79C55,66,56.13,65.47,57.29,64.9c0,2.21.09,4.21,0,6.12C57.3,71.71,57.26,72.39,57.19,73.07Zm1.23-14.94-.37.2Q56,59.5,53.8,60.54t-4.25,1.92c-1.41.59-2.82,1.14-4.26,1.66s-2.82,1-4.25,1.41-2.73.8-4.12,1.16l-.13,0c-.61.15-1.25.27-2.15.47.68-4.69,1.5-9.08,1.88-13.51a7.07,7.07,0,0,1,.27-1.45c.49-1.59,1.57-2.23,3.42-2.8l.83-.25c1.42-.45,2.84-.92,4.25-1.4s2.84-1,4.26-1.51,2.84-1.05,4.25-1.59L58,43.05h0a5.31,5.31,0,0,1,4.12.05l.14,0c1.41.53,2.83,1,4.25,1.55l4.25,1.51,4.26,1.49,4.25,1.49,2.27.81c.61.22,1.49.82,1.57,1.36.14.85.28,1.71.41,2.56.67,4.3,1.26,8.64,1.91,13.15-.69-.09-1.22-.11-1.71-.23l-.2,0c-1.43-.36-2.84-.76-4.25-1.19s-2.85-.9-4.25-1.4-2.85-1.06-4.26-1.64S68,61.32,66.56,60.64s-2.85-1.42-4.25-2.2l-.63-.35A2.93,2.93,0,0,0,58.42,58.13ZM108,83.07c-.17,1.39-.74,1.93-2.06,1.82-4.78-.43-9.62-.42-14.32-1.29A163.93,163.93,0,0,1,75,79.28c-3.18-.94-6.23-2.35-9.65-3.66,0,1.5.08,2.68,0,3.85A2.26,2.26,0,0,0,67,82.07c8.88,3.66,17.94,6.5,27.43,7.52,3.29.35,6.6.59,10.18.88a53.44,53.44,0,0,1-3.9,5l-.25.29c-.75.84-1.53,1.68-2.33,2.47-.56.56-1.14,1.11-1.73,1.65-5.11-.79-10.23-1.55-15.24-2.81-5.31-1.33-10.42-3.58-15.81-5.49a22.84,22.84,0,0,1,0,3c-.27,2,.4,3,2.2,3.59,6.7,2,13.33,4.29,20.06,6.14.81.22,1.64.41,2.47.57a53.37,53.37,0,0,1-10.77,5.57c-1.29.49-2.6.93-3.92,1.32l-7.73-2.56c-.69-.23-1.35-.6-2.09-.93a16.51,16.51,0,0,0-.08,4.4,6.21,6.21,0,0,0,.25,1c-1,.1-1.94.17-2.92.22V112.7c-.05-9.25,0-18.5,0-27.75V65.69c1.25.39,2.5.81,3.75,1.22l4.25,1.44c1.42.49,2.84,1,4.25,1.43,3.46,1.13,6.92,2.16,10.43,2.94,7.62,1.69,15.49,2.15,23.57,3.19C108.73,78.1,108.3,80.57,108,83.07Zm5.18-13.62a13,13,0,0,1-1.58.07l-2.51-.1V37.77a53.88,53.88,0,0,1,4.09,31.68Z"/><path class="cls-1" d="M170.51,22.93h16.25l36.77,72.92H207.28l-1.17-2.32A27,27,0,0,0,182,78.66H171.61A20.87,20.87,0,0,0,153,90.17l-2.86,5.68H133.94Zm19.42,38.56-9.24-18.32a2.3,2.3,0,0,0-4.12,0l-9.94,19.72a1.68,1.68,0,0,0,1.5,2.44h19.43A2.65,2.65,0,0,0,189.93,61.49Z"/><path class="cls-1" d="M243,74.6h0V95.85H228.43V22.93h37.5c15.63,0,28.55,10.31,28.55,25.84,0,10.21-6.67,18.75-15.73,23l18.33,24.06H279l-4.18-5.49A39.88,39.88,0,0,0,243,74.6Zm22.92-38.23H243V48.76A12.19,12.19,0,0,0,255.21,61h10.72c8,0,14-5.31,14-12.18C279.89,41.58,274.06,36.37,265.93,36.37Z"/><path class="cls-1" d="M318.13,95.85h-8.25a6.33,6.33,0,0,1-6.34-6.33V29.26a6.33,6.33,0,0,1,6.34-6.33h8.25V52.72h3.53a11.22,11.22,0,0,0,8.12-3.47L354.9,22.93h19.8L340.11,59.39l37.3,36.46H357.09L329.53,69.32a11.63,11.63,0,0,0-8.07-3.26h-3.33Z"/></g></g></svg>